<svg width="88" height="24" viewBox="0 0 88 24" fill="none" xmlns="http://www.w3.org/2000/svg">
<path fill-rule="evenodd" clip-rule="evenodd" d="M19.5 5.25045C19.5 3.45553 18.0449 2.00045 16.25 2.00045L16.0469 2.0025C14.2942 2.06864 12.7454 3.38657 11.7601 5.45978L11.749 5.48245L11.6235 5.22395C10.5947 3.20957 9.01451 1.9696 7.23693 2.00057C5.45507 2.00045 4 3.45553 4 5.25045C4 5.89477 4.1875 6.4953 4.51091 7.00045H3.75C2.7835 7.00045 2 7.78395 2 8.75045V10.7505C2 11.717 2.7835 12.5005 3.75 12.5005H4V18.7505L4.00502 18.918C4.0916 20.3587 5.28747 21.5005 6.75 21.5005H11.75H16.75L16.9175 21.4954C18.3583 21.4089 19.5 20.213 19.5 18.7505V12.5005H19.75C20.7165 12.5005 21.5 11.717 21.5 10.7505V8.75045C21.5 7.78395 20.7165 7.00045 19.75 7.00045H18.9891C19.3125 6.4953 19.5 5.89477 19.5 5.25045ZM16.25 7.00045C17.2165 7.00045 18 6.21695 18 5.25045C18 4.28395 17.2165 3.50045 16.2369 3.50034C14.8647 3.47643 13.5079 4.80151 12.7494 7.00045H16.25ZM10.7506 7.00045C9.99196 4.80151 8.63379 3.47644 7.25 3.50045C6.2835 3.50045 5.5 4.28395 5.5 5.25045C5.5 6.16863 6.20711 6.92165 7.10647 6.99465L7.25 7.00045H10.7506ZM7.25 8.50045H3.75C3.61193 8.50045 3.5 8.61238 3.5 8.75045V10.7505C3.5 10.8885 3.61193 11.0005 3.75 11.0005H4.75H11V8.50045H7.25ZM5.5 18.7505V12.5005H11V20.0005H6.75L6.62219 19.994C5.99187 19.93 5.5 19.3977 5.5 18.7505ZM16.75 20.0005H12.5V12.5005H18V18.7505L17.9935 18.8783C17.9295 19.5086 17.3972 20.0005 16.75 20.0005ZM19.75 11.0005H18.75H12.5V8.50045H16.25H19.75C19.8881 8.50045 20 8.61238 20 8.75045V10.7505C20 10.8885 19.8881 11.0005 19.75 11.0005Z" fill="#212121"/>
<path fill-rule="evenodd" clip-rule="evenodd" d="M75.7512 2C77.0426 2 78.126 2.89006 78.4216 4.09017L78.4582 4.269L78.578 4.33444C80.8006 5.59267 82.2674 7.87478 82.4825 10.4614L82.5012 10.75L82.4958 13.6599C82.6198 14.6843 83.2229 15.5889 84.1208 16.0974C84.7609 16.4599 84.5445 17.4083 83.8532 17.4938L83.7512 17.5H79.5012V17.75C79.5012 19.8211 77.8223 21.5 75.7512 21.5C73.747 21.5 72.11 19.9276 72.0064 17.9492L72.0012 17.75V17.5H67.7512C66.9806 17.5 66.7111 16.4771 67.3817 16.0974C68.2197 15.6228 68.801 14.8031 68.9711 13.9364L69.0012 13.75L69.0021 10.7148C69.1275 8.04289 70.6196 5.63912 72.9245 4.33443L73.0432 4.269L73.0456 4.25568C73.2687 3.02627 74.3092 2.08161 75.5837 2.00502L75.7512 2ZM73.5012 17.5V17.75C73.5012 18.9926 74.5086 20 75.7512 20C76.9421 20 77.9169 19.0748 77.9961 17.904L78.0012 17.75V17.5H73.5012ZM78.7512 16H72.7512H69.6642L69.7325 15.9042C70.1395 15.2936 70.4052 14.5887 70.4958 13.8401L70.5012 10.75L70.5184 10.4983C70.7115 8.3253 72.0598 6.37942 74.0718 5.42802L74.1609 5.37833L74.2406 5.31857L74.2816 5.28033L74.3106 5.24995L74.3703 5.17364L74.3988 5.12854L74.4423 5.04193L74.4745 4.94938L74.4944 4.85177L74.4985 4.81538L74.5077 4.62219C74.5717 3.99187 75.104 3.5 75.7512 3.5C76.4416 3.5 77.0012 4.05964 77.0012 4.75L77.0089 4.85732C77.0445 5.10384 77.2012 5.31954 77.4306 5.42802C79.5201 6.41602 80.8937 8.47646 81.0021 10.7852L81.0012 13.75L81.0365 13.9984C81.1592 14.7366 81.4347 15.4117 81.8349 15.9902L81.8412 16H78.7512Z" fill="#212121"/>
</svg>
