<svg width="63" height="46" viewBox="0 0 63 46" fill="none" xmlns="http://www.w3.org/2000/svg">
<g clip-path="url(#clip0_169_244)">
<path d="M0 0H61C62.1046 0 63 0.895431 63 2V43.913C63 45.0176 62.1046 45.913 61 45.913H0V0Z" fill="#0D6EFD"/>
<path fill-rule="evenodd" clip-rule="evenodd" d="M25.5503 20.8944C25.261 20.5925 25.261 20.1031 25.5503 19.8012C25.8133 19.5268 26.2248 19.5019 26.5148 19.7264L26.5979 19.8012L32 25.4379L37.4021 19.8012C37.6651 19.5268 38.0766 19.5019 38.3666 19.7264L38.4497 19.8012C38.7127 20.0757 38.7366 20.5051 38.5214 20.8077L38.4497 20.8944L32.5238 27.0779C32.2608 27.3523 31.8493 27.3773 31.5593 27.1528L31.4762 27.0779L25.5503 20.8944Z" fill="white"/>
</g>
<defs>
<clipPath id="clip0_169_244">
<rect width="63" height="45.913" fill="white"/>
</clipPath>
</defs>
</svg>
